<svg xmlns="http://www.w3.org/2000/svg"  viewBox="0 0 24 24" width="24px" height="24px"><path fill="#303C42" d="M12,18.000248c-0.1245117,0-0.2490234-0.0463867-0.3457031-0.1386719l-11.5-10.999999 c-0.1992188-0.190918-0.206543-0.5073242-0.015625-0.7070313c0.1904297-0.199707,0.5068359-0.2075195,0.7070313-0.015625 L12,16.8083534L23.1542969,6.1389208c0.2006836-0.190918,0.5166016-0.1831055,0.7070313,0.015625 c0.190918,0.199707,0.1835938,0.5161133-0.015625,0.7070313l-11.5,10.999999 C12.2490234,17.9538612,12.1245117,18.000248,12,18.000248z"/><linearGradient id="jaYRY7afA9XORrAGT5U-za" x1="1.021" x2="20.82" y1="4.199" y2="13.432" gradientUnits="userSpaceOnUse"><stop offset="0" stop-color="#fff" stop-opacity=".2"/><stop offset="1" stop-color="#fff" stop-opacity="0"/></linearGradient><path fill="url(#jaYRY7afA9XORrAGT5U-za)" d="M12,18.000248c-0.1245117,0-0.2490234-0.0463867-0.3457031-0.1386719l-11.5-10.999999 c-0.1992188-0.190918-0.206543-0.5073242-0.015625-0.7070313c0.1904297-0.199707,0.5068359-0.2075195,0.7070313-0.015625 L12,16.8083534L23.1542969,6.1389208c0.2006836-0.190918,0.5166016-0.1831055,0.7070313,0.015625 c0.190918,0.199707,0.1835938,0.5161133-0.015625,0.7070313l-11.5,10.999999 C12.2490234,17.9538612,12.1245117,18.000248,12,18.000248z"/></svg>