<svg xmlns="http://www.w3.org/2000/svg"  viewBox="0 0 100 100" width="100px" height="100px"><path fill="#e18e4a" d="M62,67.02717c12-12,9.875-17.125,1.5-25.5-9.5-9.5-15.5-9.5-26.5,1.5-12.87514,12.87514-23.5,42.5-20.5,45.5S49.12486,79.90231,62,67.02717Z"/><path fill="#1f212b" d="M18.397,89.94905a3.69268,3.69268,0,0,1-2.604-.71484c-4.09229-4.0918,8.29639-34.71094,20.5-46.91407,11.27-11.27148,17.792-11.62207,27.91406-1.5,8.96094,8.96094,10.73291,14.68164-1.5,26.91407C51.85693,78.58479,27.02979,89.94905,18.397,89.94905ZM51.21973,35.58381c-3.97461,0-8.05274,2.69043-13.5127,8.1504C24.29443,57.14729,15.30127,85.7303,17.208,87.82112c2.40478,2.08691,31.23486-8.65039,44.085-21.501,11.63574-11.63574,9.52441-16.06152,1.5-24.08593C58.37842,37.82014,54.84229,35.58381,51.21973,35.58381Z"/><path fill="#70b570" d="M67,9.02717c-4,0-9,1.75-9,11s4,15,6,15c4,0,15-9.5,15-16S73.25,9.02717,67,9.02717Z"/><path fill="#1f212b" d="M64,36.02717c-2.78662,0-7-6.38183-7-16,0-10.4414,6.26514-12,10-12,6.26123,0,13,3.44239,13,11C80,25.9676,68.76465,36.02717,64,36.02717Zm3-26c-5.30859,0-8,3.36426-8,10,0,9.334,4.04541,14,5,14,3.34863,0,14-8.92871,14-15C78,12.84358,72.29785,10.02717,67,10.02717Z"/><path fill="#70b570" d="M82,30.27717c3,0,5,2.75,5,7.75s-3,7-7,7c-2,0-11-1-11-5C69,38.02717,75.25,30.27717,82,30.27717Z"/><path fill="#1f212b" d="M80,46.02717c-2.38086,0-12-1.06738-12-6,0-2.48046,6.61816-10.75,14-10.75,2.90039,0,6,2.29883,6,8.75C88,43.11116,85.084,46.02717,80,46.02717Zm2-14.75c-6.3501,0-11.98242,7.47559-12,8.75,0,2.79688,7.58936,4,10,4,3.98145,0,6-2.01855,6-6C86,33.80061,84.50488,31.27717,82,31.27717Z"/><path fill="#1f212b" d="M21.228,84.16487a.49991.49991,0,0,1-.11475-.98633c8.04151-1.90527,27.30567-10.207,37.06836-19.96973q1.04809-1.04736,1.937-2.01953a.50043.50043,0,0,1,.73828.67578q-.90381.98731-1.96826,2.05079c-9.896,9.89648-29.40429,18.30761-37.54492,20.23535A.47149.47149,0,0,1,21.228,84.16487Z"/><path fill="#1f212b" d="M62.21875,60.02717a.49945.49945,0,0,1-.3877-.81445,24.2245,24.2245,0,0,0,1.92432-2.69336.49985.49985,0,1,1,.85645.51563,25.09549,25.09549,0,0,1-2.0044,2.80664A.49861.49861,0,0,1,62.21875,60.02717Z"/><path fill="#1f212b" d="M65.24561,55.02717a.50049.50049,0,0,1-.47657-.65039,4.25921,4.25921,0,0,0,.22266-1.34961.50064.50064,0,0,1,.48975-.50976.51348.51348,0,0,1,.51025.49023,5.24566,5.24566,0,0,1-.26953,1.66992A.49887.49887,0,0,1,65.24561,55.02717Z"/><path fill="#1f212b" d="M64.88818,30.62483a.50029.50029,0,0,1-.22656-.94629C68.00879,27.98323,74,21.9637,74,19.02717a.5.5,0,1,1,1,0c0,3.57618-6.54541,9.85059-9.88623,11.54395A.50687.50687,0,0,1,64.88818,30.62483Z"/><path fill="#1f212b" d="M80,41.02717A21.60222,21.60222,0,0,1,74.13867,39.953a.50011.50011,0,1,1,.33789-.94141A20.33744,20.33744,0,0,0,80,40.02717c1.83984,0,2-.32812,2-2a.5.5,0,0,1,1,0C83,40.0594,82.55127,41.02717,80,41.02717Z"/></svg>