<svg width="149" height="30" viewBox="0 0 149 30" fill="none" xmlns="http://www.w3.org/2000/svg">
<path fill-rule="evenodd" clip-rule="evenodd" d="M17.8765 11.9759C19.6421 13.7528 21.0856 16.6621 20.2593 18.3905C18.0493 23.0131 1.56126 31.1195 0.160504 29.7168C-1.24017 28.3139 6.86045 11.7952 11.4762 9.5819C13.2022 8.75418 16.1077 10.2005 17.882 11.969C17.882 11.969 17.8801 11.9713 17.8765 11.9759V11.9759V11.9759Z" fill="#FF8200"/>
<path fill-rule="evenodd" clip-rule="evenodd" d="M26.6115 10.0245C26.6116 10.0244 26.6117 10.0244 26.6117 10.0244C26.3246 8.96116 25.5929 7.88701 24.5005 7.75976C22.4972 7.52639 19.3392 11.0736 19.5645 11.9155C19.7898 12.7575 24.2511 14.2415 25.9177 13.0419C26.7767 12.4236 26.8976 11.0881 26.6154 10.0235L26.6115 10.0245V10.0245V10.0245ZM20.4111 0.196727C21.8995 0.600035 23.4028 1.62739 23.5808 3.16095C23.9075 5.97382 18.9416 10.408 17.7629 10.0917C16.5841 9.77538 14.5067 3.51109 16.186 1.17093C17.0516 -0.0352098 18.9213 -0.204922 20.4117 0.191334C20.4117 0.191334 20.4115 0.193149 20.4111 0.196727V0.196727V0.196727Z" fill="#43B02A"/>
<path fill-rule="evenodd" clip-rule="evenodd" d="M64.7779 16.8481L63.3031 16.6243C61.8978 16.4165 61.0842 15.961 61.0842 15.1309C61.0842 14.1792 62.1431 13.588 63.7087 13.588C64.8158 13.588 65.717 14.0036 66.5797 14.4437L66.7513 14.5309C66.9506 14.6322 67.1643 14.6834 67.3865 14.6834C67.8986 14.6834 68.3701 14.4049 68.6171 13.9565L68.7376 13.7385C68.9286 13.3917 68.9693 12.9921 68.8517 12.6136C68.7348 12.2361 68.4764 11.9312 68.1246 11.7545C66.8676 11.1241 65.5044 10.5583 63.7087 10.5583C59.9556 10.5583 57.5378 12.3732 57.5378 15.2947C57.5378 17.6928 59.2586 19.1961 62.5149 19.6421L64.0028 19.836C65.575 20.0569 66.3393 20.5229 66.3393 21.2606C66.3393 21.9423 65.9714 22.8484 63.536 22.8484C62.1935 22.8484 60.8303 22.5071 59.7237 21.805C59.5029 21.665 59.248 21.591 58.987 21.591C58.5012 21.591 58.0399 21.8492 57.7834 22.2651L57.7007 22.3994C57.4948 22.733 57.4329 23.1423 57.5308 23.5224C57.6285 23.9016 57.8685 24.2152 58.2063 24.4056C60.1359 25.4922 62.363 25.8778 63.536 25.8778C67.4486 25.8778 69.8709 24.1601 69.8709 21.1383C69.8709 18.7201 68.157 17.3341 64.7779 16.8481V16.8481Z" fill="#43B02A"/>
<path fill-rule="evenodd" clip-rule="evenodd" d="M110.273 22.1262C109.991 21.8104 109.586 21.6293 109.162 21.6293C108.875 21.6293 108.596 21.711 108.352 21.8657C107.556 22.3718 106.684 22.6393 105.828 22.6393C103.478 22.6393 101.771 20.78 101.771 18.2181C101.771 15.6562 103.478 13.7967 105.828 13.7967C106.731 13.7967 107.539 14.0423 108.297 14.5477C108.885 14.9389 109.729 14.8387 110.212 14.3223L110.337 14.1887C110.668 13.835 110.825 13.3554 110.769 12.8733C110.714 12.3997 110.456 11.9781 110.063 11.7169C108.907 10.9492 107.474 10.5435 105.918 10.5435C101.406 10.5435 98.2544 13.6995 98.2544 18.2181C98.2544 22.7369 101.406 25.8929 105.918 25.8929C107.48 25.8929 108.921 25.4788 110.086 24.6956C110.474 24.4339 110.731 24.0157 110.789 23.5481C110.848 23.0766 110.7 22.6036 110.384 22.2502L110.273 22.1262V22.1262Z" fill="#43B02A"/>
<path fill-rule="evenodd" clip-rule="evenodd" d="M37.2505 5.35083C36.0761 5.35083 35.1562 6.28388 35.1562 7.47498C35.1562 8.67069 36.0566 9.57235 37.2505 9.57235C38.4398 9.57235 39.3713 8.65114 39.3713 7.47498C39.3713 6.28388 38.4398 5.35083 37.2505 5.35083V5.35083Z" fill="#43B02A"/>
<path fill-rule="evenodd" clip-rule="evenodd" d="M37.8844 10.6677H36.6489C36.0436 10.6677 35.553 11.1591 35.553 11.7653V24.4219C35.553 25.0283 36.0438 25.5199 36.6493 25.5199H37.884C38.4895 25.5199 38.9804 25.0283 38.9804 24.4219V11.7653C38.9804 11.1591 38.4897 10.6677 37.8844 10.6677V10.6677Z" fill="#43B02A"/>
<path fill-rule="evenodd" clip-rule="evenodd" d="M78.444 22.5736C77.0576 22.5682 75.4463 21.48 75.4463 19.5748V13.8659H78.4543C79.0598 13.8659 79.5506 13.3744 79.5506 12.7679V11.7658C79.5506 11.1594 79.0598 10.6678 78.4543 10.6678H75.4463V7.37314C75.4463 6.76672 74.9554 6.27515 74.3499 6.27515H73.0465C72.4411 6.27515 71.9502 6.76672 71.9502 7.37314V19.3704C71.9502 22.824 74.5671 25.8778 78.1909 25.8778H78.1922C78.5539 25.8778 78.8946 25.7359 79.1518 25.4784C79.4089 25.2209 79.5506 24.8796 79.5506 24.5174L79.5506 23.6715C79.5506 23.0619 79.0527 22.5759 78.444 22.5736V22.5736Z" fill="#43B02A"/>
<path fill-rule="evenodd" clip-rule="evenodd" d="M48.5071 10.5435C44.1211 10.5435 41.6753 14.0564 41.6753 17.0629V24.4219C41.6753 25.0283 42.1662 25.5199 42.7716 25.5199H44.0212C44.6267 25.5199 45.1176 25.0283 45.1176 24.4219V17.6153C45.1176 15.3363 46.4964 13.8267 48.5071 13.8267C50.5177 13.8267 51.8965 15.3363 51.8965 17.6153V24.4219C51.8965 25.0283 52.3874 25.5199 52.9929 25.5199H54.2425C54.848 25.5199 55.3388 25.0283 55.3388 24.4219V17.0629C55.3388 14.0564 52.893 10.5435 48.5071 10.5435V10.5435Z" fill="#43B02A"/>
<path fill-rule="evenodd" clip-rule="evenodd" d="M138.721 10.6959C138.246 10.5919 137.054 10.5435 136.437 10.5435C136.381 10.5435 136.327 10.5455 136.273 10.5455C132.877 10.5455 129.742 13.3181 129.742 17.1396C129.741 17.1428 129.74 17.1464 129.74 17.1492V17.2212V24.4219C129.74 25.0283 130.231 25.5199 130.837 25.5199H132.086C132.692 25.5199 133.183 25.0283 133.183 24.4219V17.2655C133.183 15.1849 134.666 13.8288 136.483 13.8288C136.816 13.834 137.173 13.8714 137.523 13.9407C137.618 13.9595 137.715 13.969 137.811 13.969C138.505 13.969 139.105 13.4895 139.268 12.8142C139.357 12.4434 139.423 12.1672 139.485 11.915C139.546 11.6629 139.504 11.377 139.36 11.1459C139.215 10.9141 138.988 10.7543 138.721 10.6959V10.6959Z" fill="#43B02A"/>
<path fill-rule="evenodd" clip-rule="evenodd" d="M147.886 13.8659C148.492 13.8659 148.983 13.3744 148.983 12.7679V11.7658C148.983 11.1594 148.492 10.6678 147.886 10.6678H144.878V7.37314C144.878 6.76672 144.388 6.27515 143.782 6.27515H142.479C141.873 6.27515 141.382 6.76672 141.382 7.37314V19.3704C141.382 22.824 143.999 25.8778 147.623 25.8778H147.624C147.986 25.8778 148.327 25.7359 148.584 25.4784C148.841 25.2209 148.983 24.8796 148.983 24.5174V23.6715C148.983 23.0619 148.485 22.5759 147.876 22.5736C146.49 22.5682 144.878 21.48 144.878 19.5748V13.8659H147.886V13.8659Z" fill="#43B02A"/>
<path fill-rule="evenodd" clip-rule="evenodd" d="M124.039 11.7211C124.037 11.7198 124.035 11.7182 124.033 11.7169C122.877 10.9492 121.444 10.5435 119.888 10.5435C119.861 10.5435 119.835 10.545 119.808 10.5452C119.781 10.545 119.754 10.5435 119.727 10.5435C118.171 10.5435 116.738 10.9492 115.582 11.7169C115.58 11.7182 115.579 11.7197 115.577 11.721C113.495 13.0326 112.225 15.3501 112.225 18.2181C112.225 21.2225 113.619 23.623 115.879 24.8955C116.932 25.5184 118.183 25.8897 119.531 25.8907C121.994 25.8925 123.481 24.4952 123.948 23.8853V24.4111C123.948 25.0175 124.439 25.5091 125.045 25.5091H126.294C126.9 25.5091 127.391 25.0175 127.391 24.4111V18.2181C127.391 15.3501 126.12 13.0326 124.039 11.7211V11.7211ZM121.185 22.4091C120.784 22.5417 120.377 22.6185 119.971 22.6355C119.942 22.6365 119.912 22.6373 119.882 22.6377C119.857 22.6382 119.832 22.6391 119.808 22.6392C119.783 22.6391 119.758 22.6382 119.733 22.6377C119.703 22.6373 119.673 22.6365 119.644 22.6355C119.239 22.6185 118.831 22.5417 118.431 22.4091C116.815 21.8376 115.741 20.2492 115.741 18.2181C115.741 15.8196 117.237 14.037 119.357 13.8193C119.368 13.8182 119.38 13.8173 119.391 13.8163C119.439 13.8118 119.487 13.8084 119.535 13.8055C119.563 13.8039 119.59 13.8023 119.618 13.8012C119.664 13.7993 119.711 13.7981 119.759 13.7977C119.775 13.7975 119.791 13.7969 119.808 13.7968C119.824 13.7969 119.84 13.7975 119.856 13.7977C119.904 13.7981 119.951 13.7993 119.998 13.8012C120.025 13.8023 120.053 13.8039 120.08 13.8055C120.128 13.8084 120.177 13.8118 120.225 13.8163C120.236 13.8173 120.247 13.8182 120.258 13.8193C122.378 14.037 123.874 15.8196 123.874 18.2181C123.874 20.2492 122.801 21.8376 121.185 22.4091V22.4091Z" fill="#43B02A"/>
<path fill-rule="evenodd" clip-rule="evenodd" d="M92.848 11.7211C92.846 11.7198 92.8443 11.7182 92.8423 11.7169C91.6864 10.9492 90.2532 10.5435 88.6975 10.5435C88.6704 10.5435 88.6439 10.545 88.6169 10.5452C88.59 10.545 88.5635 10.5435 88.5364 10.5435C86.9807 10.5435 85.5475 10.9492 84.3916 11.7169C84.3896 11.7182 84.3879 11.7197 84.386 11.721C82.3047 13.0326 81.0339 15.3501 81.0339 18.2181C81.0339 21.2225 82.4282 23.623 84.688 24.8955C85.7417 25.5184 86.9925 25.8897 88.3408 25.8907C90.8033 25.8925 92.2901 24.4952 92.7577 23.8853V24.4111C92.7577 25.0175 93.2485 25.5091 93.854 25.5091H95.1036C95.7091 25.5091 96.2 25.0175 96.2 24.4111V18.2181C96.2 15.3501 94.9292 13.0326 92.848 11.7211V11.7211ZM89.9941 22.4091C89.5937 22.5417 89.186 22.6185 88.7808 22.6355C88.7511 22.6365 88.7214 22.6373 88.6915 22.6377C88.6667 22.6382 88.6418 22.6391 88.617 22.6392C88.5921 22.6391 88.5672 22.6382 88.5424 22.6377C88.5125 22.6373 88.4828 22.6365 88.4531 22.6355C88.0479 22.6185 87.6402 22.5417 87.2398 22.4091C85.6239 21.8376 84.5507 20.2492 84.5507 18.2181C84.5507 15.8196 86.0464 14.037 88.1664 13.8193C88.1776 13.8182 88.1888 13.8173 88.2 13.8163C88.2479 13.8118 88.2962 13.8084 88.3447 13.8055C88.3721 13.8039 88.3994 13.8023 88.427 13.8012C88.4737 13.7993 88.5208 13.7981 88.5681 13.7977C88.5844 13.7975 88.6006 13.7969 88.617 13.7968C88.6333 13.7969 88.6495 13.7975 88.6658 13.7977C88.7131 13.7981 88.7602 13.7993 88.8069 13.8012C88.8345 13.8023 88.8618 13.8039 88.8892 13.8055C88.9377 13.8084 88.986 13.8118 89.0339 13.8163C89.0451 13.8173 89.0563 13.8182 89.0675 13.8193C91.1875 14.037 92.6832 15.8196 92.6832 18.2181C92.6832 20.2492 91.6101 21.8376 89.9941 22.4091V22.4091Z" fill="#43B02A"/>
</svg>
